<?xml version="1.0" encoding="UTF-8"?>
<svg xmlns="http://www.w3.org/2000/svg" fill="white" xmlns:xlink="http://www.w3.org/1999/xlink" version="1.1" viewBox="0 0 256 256" xml:space="preserve">
  <g>
    <g>
      <g>
        <path d="M115,13.6c-10.2,0.8-25.3,4-34.8,7.4C52.3,31.2,27.9,52.1,17.3,74.9c-5.5,11.9-7.8,23.3-7.2,37c1.5,42.2,19.5,83.8,45.6,105.7c10.9,9.1,24,15.8,38.1,19.4c3,0.7,10.9,2.4,17.6,3.6c10.2,1.8,13.3,2.2,18.1,2.2c24.1,0,47.7-7.7,66.1-21.5c4.9-3.7,14.3-12.8,18.6-18.1c14.5-18,24.8-42.6,29.7-71.8c3.7-21.9,2.6-35.9-4.1-53c-8.1-20.8-27.1-39.9-51.6-51.8c-14.1-6.9-27.9-10.8-43.8-12.5C138.5,13.3,121.3,13.1,115,13.6z M148.3,27.6c21,3.2,38.7,11.1,55.2,24.6c23.4,19.3,33.4,43.9,28.2,69.5c-4.3,21.1-19.2,40.7-40.4,53.3c-8.5,5-22.5,10.5-34.1,13.3c-11.3,2.7-15.2,3.2-29.4,3.2c-11.4,0-13.7-0.1-19.2-1.2c-25.1-4.5-46-14.2-60.8-28.3c-12.9-12.3-21.1-27-23.7-42.7c-1.3-7.7-0.8-19.2,1.1-26.5c3.4-13.2,10.1-24.5,21.2-35.5c7.8-7.9,18.1-15.1,28-19.7c12.3-5.7,28-9.7,42.8-11C124.5,26,140.8,26.5,148.3,27.6z" />
        <path d="M131.2,49.3c-1.7,0.7-3,3.4-2.7,5.9c0.2,1.4,3.3,9.6,3.9,10.2c0,0,0.6,0.2,1.3,0.4c1.2,0.3,1.4,0,3.6-4.3c2.6-5,3.1-8,1.7-10.5C138,49,134.2,48.2,131.2,49.3z" />
        <path d="M103.2,51.3c-2.8,1.2-3.5,5.7-1.2,8.7c1.7,2.4,7.7,8.8,8.2,8.8c0.4,0,2-10.8,2-13.3c0-1.1-0.5-2.1-1.5-3.3c-1.3-1.5-1.8-1.7-3.7-1.7C105.7,50.7,104,51,103.2,51.3z" />
        <path d="M158.7,51.8c-2.3,1.5-3.1,3.6-4.3,10.2c-0.5,3.2-1,5.9-1,5.9c0,0.3,9.2-4.7,10.7-5.8c2-1.4,2.8-3.2,2.8-6c0-2.6-0.7-3.6-3.2-4.7C161.5,50.4,160.5,50.5,158.7,51.8z" />
        <path d="M78.9,60.4c-2.2,1.2-3,2.8-3,5.3c0.1,2.6,1.2,3.9,6.3,7.5c3.8,2.7,4.5,3,5.4,2.4c1-0.5,1-0.8,0.7-4.2c-0.7-7.2-1.5-9.5-4.3-11.1C82.2,59.1,81.1,59.1,78.9,60.4z" />
        <path d="M182.4,66.5c-1.4,0.6-3.3,3.2-4.2,5.8c-0.9,2.6-1.9,7.7-1.7,8c0.3,0.2,12.5-2.7,13.1-3.2c0.7-0.6,0.4-7-0.4-8.6C188.1,66.3,185.1,65.4,182.4,66.5z" />
        <path d="M140.5,74.5c-18.1,1.3-31.3,2.7-35.9,4C99.4,80,93.7,83,90.4,86.1c-9,8.6-11.5,23.1-6,34.4c2.3,4.6,4.5,7,9.4,10.3c2.3,1.5,6.5,4.5,9.4,6.5c8.5,6,13.9,8,21.6,8c2.4,0,5.9-0.4,7.7-0.8c6.4-1.5,19.1-8.6,27.9-15.7c5.6-4.5,8.9-10.2,9.8-17.3c0.4-3.2,0.4-4.7-0.5-10.1c-2.6-16-9.1-24.8-19.9-26.7C147.1,74.2,145.2,74.2,140.5,74.5z M150.4,86.7c2.6,1.2,4.2,3.2,6.2,7.4c4.9,10.3,3.9,18.9-3,25.9c-4.9,5-17,12.2-22.9,13.6c-7.2,1.7-14.6-0.8-27.1-9.1c-5.5-3.7-7-5.3-8.9-9.5c-3.6-7.8-1.2-18.3,5.1-22.8c4.1-2.9,13.1-4.5,31.7-5.9c5.8-0.4,10.8-0.9,11-1C143.7,85,148.5,85.8,150.4,86.7z" />
        <path d="M62.4,83c-1.5,0.7-1.8,1.2-2.6,3.8c-0.5,1.7,0.4,4.1,2.3,5.8c1.2,1.2,1.5,1.2,7.4,1.2c5.7,0,6.2,0,6.7-1c0.6-1.1,0.7-1-3.1-5.4C68.7,82.5,66.1,81.4,62.4,83z" />
        <path d="M191.4,91.3c-2.2,1-11,6.5-11,6.9c0,0.5,11.7,4.3,13.3,4.3c1.7,0,4.5-1.7,5.3-3.4c0.7-1.4,0.4-5-0.5-6.1c-0.6-0.8-4-2.5-4.9-2.4C193.3,90.6,192.3,90.9,191.4,91.3z" />
        <path d="M57.3,111.7c-1.7,1.3-1.8,1.6-1.8,4.1c0,2.3,0.2,2.9,1.3,4c2.8,2.8,5.9,2.4,12.3-1.6c2.5-1.5,3.4-2.4,3.5-3.3c0.1-1.1-0.2-1.3-4.7-3C61.9,109.7,59.7,109.7,57.3,111.7z" />
        <path d="M184.9,118.9c-1,0.2-3,0.8-4.4,1.2c-2.3,0.7-2.6,0.9-2.6,2c0,1,0.6,1.7,2.3,3c4.4,3.3,7.1,4.8,8.6,4.8c3.9,0,6-2,6-5.9C194.7,119.5,190.8,117.5,184.9,118.9z" />
        <path d="M77.1,135.2c-5.5,0.4-6.8,0.9-8.6,3.7c-1.6,2.4-1.7,3.4-0.7,5.4c0.9,1.7,1.8,2.3,4.1,2.4c4.6,0.3,5.7-0.3,9.6-6c2.2-3.3,2.4-3.7,1.9-4.8c-0.3-0.7-0.8-1.2-1.1-1.2C81.9,134.8,79.6,135,77.1,135.2z" />
        <path d="M165.6,140.1c-0.8,0.9-0.8,1.1,0.3,2.9c3.7,6.6,5.8,8.6,9.1,9.3c1.9,0.4,4.4-1.3,5.6-3.8c1.2-2.5,1-3.6-1.1-5.6c-1.9-1.9-3.4-2.4-10-3.3C166.7,139.2,166.3,139.3,165.6,140.1z" />
        <path d="M99.8,148.4c-6.3,2.6-8,3.7-9,5.7c-1.5,3.2-0.5,6.1,2.7,7.8c2.7,1.4,6.6-0.3,7.8-3.3c0.8-2.1,3.6-12,3.5-12.1C104.7,146.3,102.5,147.2,99.8,148.4z" />
        <path d="M149.4,152.6c-0.8,0.6-0.8,0.9-0.1,4.7c1.7,9.2,2.9,11,7.2,11c3,0,4.4-1.3,5.9-5.5c0.6-1.8,1.1-3.4,1.1-3.4c-0.6-0.5-12.6-7.4-12.9-7.4C150.4,152,149.9,152.3,149.4,152.6z" />
        <path d="M124.4,158.3c-1.3,1.6-2.7,3.6-3.3,4.6c-1,1.9-1.2,5.1-0.4,7.1c0.9,2.4,5.8,3.4,8.6,1.9c2.3-1.2,2.5-3.1,1.1-10c-0.7-3.2-1.2-5.9-1.2-5.9c0,0-0.6-0.2-1.3-0.3C127,155.5,126.4,155.9,124.4,158.3z" />
      </g>
    </g>
  </g>
</svg>